# xmcd
#
# Track frame offsets:
#	183
#	17358
#	31258
#	51063
#	70458
#	83208
#	98433
#	115458
#	130093
#	143943
#	156410
#	176465
#	194525
#	202458
#
# Disc length: 2907 seconds
#
# Revision: 1
# Processed by: cddbd v1.5.2PL0 Copyright (c) Steve Scherf et al.
# Submitted via: audiograbber 1.83.01
#
DISCID=c50b590e
DTITLE=Various Artist - Unterwegs mit Gunter
DYEAR=1900
DGENRE=Country
TTITLE0=Tom Astor - Radwechsel
TTITLE1=Tommy Scharf - Anett'
TTITLE2=Peter Williams Band - Rücksicht
TTITLE3=Buffalo Bernie and Friends - On Tour
TTITLE4=Boss Band - Die Countrymusik ist dabei
TTITLE5=Gunsmoke - Heading down the Highway
TTITLE6=Nina Nova and Band - Halleluja
TTITLE7=George and Lucky Riders - You're like a Star
TTITLE8=Ralf Paulsen - Hat ein Cowboy graue Schläfen
TTITLE9=Rio Carter - Wir machen Countrymusic
TTITLE10=Bud Hennessie - Singt man denn im Himmel
TTITLE11=Rugy and Howard - Es ist schön bei euch zu sein
TTITLE12=Drifters Caravan - Gouty Fingers
TTITLE13=Linda Lane - Der alte Mann
EXTD=
EXTT0=
EXTT1=
EXTT2=
EXTT3=
EXTT4=
EXTT5=
EXTT6=
EXTT7=
EXTT8=
EXTT9=
EXTT10=
EXTT11=
EXTT12=
EXTT13=
PLAYORDER=
